<!DOCTYPE svg PUBLIC "-//W3C//DTD SVG 1.1//EN" "http://www.w3.org/Graphics/SVG/1.1/DTD/svg11.dtd">
<!-- Uploaded to: SVG Repo, www.svgrepo.com, Transformed by: SVG Repo Mixer Tools -->
<svg version="1.1" id="Uploaded to svgrepo.com" xmlns="http://www.w3.org/2000/svg" xmlns:xlink="http://www.w3.org/1999/xlink" width="800px" height="800px" viewBox="0 0 32 32" xml:space="preserve" fill="#609966">
<g id="SVGRepo_bgCarrier" stroke-width="0"/>
<g id="SVGRepo_tracerCarrier" stroke-linecap="round" stroke-linejoin="round"/>
<g id="SVGRepo_iconCarrier"> <style type="text/css"> .feather_een{fill:#609966;} </style> <g> <path class="feather_een" d="M8.5,4C8.224,4,8,4.224,8,4.5v2C8,6.776,8.224,7,8.5,7S9,6.776,9,6.5v-2C9,4.224,8.776,4,8.5,4z"/> <path class="feather_een" d="M12.5,4C12.224,4,12,4.224,12,4.5v2C12,6.776,12.224,7,12.5,7S13,6.776,13,6.5v-2 C13,4.224,12.776,4,12.5,4z"/> <path class="feather_een" d="M25,1H7C5.895,1,5,1.895,5,3v26c0,1.105,0.895,2,2,2h18c1.105,0,2-0.895,2-2V3C27,1.895,26.105,1,25,1 z M12,30H7c-0.552,0-1-0.448-1-1v-5h6V30z M12,23H6v-6h6V23z M12,16H6v-6h6V16z M19,30h-6v-6h6V30z M19,23h-6v-6h6V23z M19,16h-6 v-6h6V16z M26,29c0,0.552-0.448,1-1,1h-5v-6h6V29z M26,23h-6v-6h6V23z M26,16h-6v-6h6V16z M26,9H6V3c0-0.552,0.448-1,1-1h18 c0.552,0,1,0.448,1,1V9z"/> <path class="feather_een" d="M10.5,4C10.224,4,10,4.224,10,4.5v2C10,6.776,10.224,7,10.5,7S11,6.776,11,6.5v-2 C11,4.224,10.776,4,10.5,4z"/> </g> </g>
</svg>